<svg xmlns="http://www.w3.org/2000/svg" width="60" height="60" viewBox="0 0 60 60">
  <g id="Group_45" data-name="Group 45" transform="translate(-2461 480)">
    <g id="Group_37" data-name="Group 37" transform="translate(-33 89)">
      <path id="Path_13" data-name="Path 13" d="M0,0H60V60H0Z" transform="translate(2494 -569)" fill="#5cd3ff"/>
    </g>
    <path id="brain-solid" d="M14.735,0a4.521,4.521,0,0,0-4.378,3.415c-.057,0-.1-.014-.156-.014A4.538,4.538,0,0,0,5.667,7.934a4.178,4.178,0,0,0,.12.992,5.619,5.619,0,0,0-2.933,7.715A5.646,5.646,0,0,0,3.5,26.772a5.191,5.191,0,0,0-.1,1,5.1,5.1,0,0,0,5.1,5.1,4.8,4.8,0,0,0,.85-.085,5.089,5.089,0,0,0,9.918-1.615V4.534A4.538,4.538,0,0,0,14.735,0Zm26.07,21.536a5.638,5.638,0,0,0-2.855-4.9,5.576,5.576,0,0,0,.588-2.472,5.667,5.667,0,0,0-3.521-5.242A4.492,4.492,0,0,0,30.6,3.4c-.057,0-.106.014-.156.014a4.525,4.525,0,0,0-8.912,1.119V31.171a5.089,5.089,0,0,0,9.918,1.615,4.8,4.8,0,0,0,.85.085,5.1,5.1,0,0,0,5.1-5.1,5.192,5.192,0,0,0-.1-1A5.668,5.668,0,0,0,40.806,21.536Z" transform="translate(2470.585 -468)" fill="#fff"/>
  </g>
</svg>
