<svg xmlns="http://www.w3.org/2000/svg" width="60" height="60" viewBox="0 0 60 60">
  <g id="Group_41" data-name="Group 41" transform="translate(-2185 480)">
    <g id="Group_33" data-name="Group 33" transform="translate(-309 89)">
      <rect id="Rectangle_61" data-name="Rectangle 61" width="60" height="60" transform="translate(2494 -569)" fill="#5cd3ff"/>
    </g>
    <path id="dumbbell-solid" d="M7.63,36.7H4.108a1.757,1.757,0,0,0-1.761,1.761v7.63H.587A.589.589,0,0,0,0,46.673v3.521a.589.589,0,0,0,.587.587H2.348v7.63a1.757,1.757,0,0,0,1.761,1.761H7.63a1.757,1.757,0,0,0,1.761-1.761V38.456A1.757,1.757,0,0,0,7.63,36.7Zm38.736,9.391H44.605v-7.63A1.757,1.757,0,0,0,42.845,36.7H39.323a1.757,1.757,0,0,0-1.761,1.761V58.411a1.757,1.757,0,0,0,1.761,1.761h3.521a1.757,1.757,0,0,0,1.761-1.761v-7.63h1.761a.589.589,0,0,0,.587-.587V46.673A.589.589,0,0,0,46.366,46.086ZM33.454,32H29.933a1.757,1.757,0,0,0-1.761,1.761V46.086H18.781V33.761A1.757,1.757,0,0,0,17.021,32H13.5a1.757,1.757,0,0,0-1.761,1.761V63.106A1.757,1.757,0,0,0,13.5,64.867h3.521a1.757,1.757,0,0,0,1.761-1.761V50.781h9.391V63.106a1.757,1.757,0,0,0,1.761,1.761h3.521a1.757,1.757,0,0,0,1.761-1.761V33.761A1.757,1.757,0,0,0,33.454,32Z" transform="translate(2192 -498)" fill="#fff"/>
  </g>
</svg>
