<svg xmlns="http://www.w3.org/2000/svg" width="60" height="60" viewBox="0 0 60 60">
  <g id="Group_42" data-name="Group 42" transform="translate(-2254 480)">
    <g id="Group_34" data-name="Group 34" transform="translate(-240 89)">
      <rect id="Rectangle_61" data-name="Rectangle 61" width="60" height="60" transform="translate(2494 -569)" fill="#5cd3ff"/>
    </g>
    <path id="apple-alt-solid" d="M26.622,9.793a7.437,7.437,0,0,1,4.852,3.188A14.227,14.227,0,0,1,33.748,18.9a18.88,18.88,0,0,1-.076,6.528,20.513,20.513,0,0,1-3.639,9.034,9.834,9.834,0,0,1-8.189,4.4,5.757,5.757,0,0,1-2.654-.759,4.286,4.286,0,0,0-4.4,0,5.757,5.757,0,0,1-2.654.759,9.834,9.834,0,0,1-8.189-4.4A20.513,20.513,0,0,1,.31,25.431,18.88,18.88,0,0,1,.234,18.9a14.227,14.227,0,0,1,2.274-5.921A7.437,7.437,0,0,1,7.361,9.793a12.666,12.666,0,0,1,5,.531,21.02,21.02,0,0,1,4.625,1.822,21.02,21.02,0,0,1,4.625-1.822A12.675,12.675,0,0,1,26.622,9.793ZM22.451,6.68a6.419,6.419,0,0,1-2.806,1.442,8.858,8.858,0,0,1-2.654.38l-1.137-.076a9.741,9.741,0,0,1,0-2.429A6.772,6.772,0,0,1,17.6,1.822,6.419,6.419,0,0,1,20.4.38,8.858,8.858,0,0,1,23.057,0l1.137.076.076,1.139a8.9,8.9,0,0,1-.379,2.657A6.417,6.417,0,0,1,22.451,6.68Z" transform="translate(2267.013 -469)" fill="#fff"/>
  </g>
</svg>
