<svg xmlns="http://www.w3.org/2000/svg" width="60" height="60" viewBox="0 0 60 60">
  <g id="Group_43" data-name="Group 43" transform="translate(-2323 480)">
    <g id="Group_35" data-name="Group 35" transform="translate(-171 89)">
      <rect id="Rectangle_61" data-name="Rectangle 61" width="60" height="60" transform="translate(2494 -569)" fill="#5cd3ff"/>
    </g>
    <path id="bolt-solid" d="M22.46,12.146H13.7l3.234-9.853A1.829,1.829,0,0,0,15.173,0H4.241A1.825,1.825,0,0,0,2.435,1.579L.005,19.8a1.825,1.825,0,0,0,1.807,2.065h9.011l-3.5,14.765a1.82,1.82,0,0,0,3.348,1.328L24.032,14.879A1.818,1.818,0,0,0,22.46,12.146Z" transform="translate(2342.01 -469)" fill="#fff"/>
  </g>
</svg>
