<svg xmlns="http://www.w3.org/2000/svg" width="60" height="60" viewBox="0 0 60 60">
  <g id="Group_46" data-name="Group 46" transform="translate(-2530 480)">
    <g id="Group_38" data-name="Group 38" transform="translate(36 89)">
      <rect id="Rectangle_61" data-name="Rectangle 61" width="60" height="60" transform="translate(2494 -569)" fill="#5cd3ff"/>
      <path id="check-solid" d="M10.869,88.492l-10.4-10.4a1.6,1.6,0,0,1,0-2.263l2.263-2.263a1.6,1.6,0,0,1,2.263,0L12,80.573,27.006,65.567a1.6,1.6,0,0,1,2.263,0l2.263,2.263a1.6,1.6,0,0,1,0,2.263l-18.4,18.4a1.6,1.6,0,0,1-2.263,0Z" transform="translate(2508 -615.157)" fill="#fff"/>
    </g>
  </g>
</svg>
