<svg xmlns="http://www.w3.org/2000/svg" width="141.849" height="38.819" viewBox="0 0 141.849 38.819">
  <path id="Path_6" data-name="Path 6" d="M9.1,29.237S-.893,23.4.067,1.814a.259.259,0,0,1,.083-.177A10.437,10.437,0,0,1,5.027.763a12.69,12.69,0,0,1,5.022.8.147.147,0,0,1,.038.2C9.466,2.765,3.241,13.519,9.1,29.237Zm1,.864a.15.15,0,0,0-.153.132A12.716,12.716,0,0,0,11.724,35a10.415,10.415,0,0,0,3.166,3.808.238.238,0,0,0,.194-.014c19.252-9.811,19.4-21.381,19.4-21.381C23.7,30.256,11.276,30.149,10.1,30.1ZM39.517,7.488C21.407-4.293,11.3,1.353,11.3,1.353,27.819,4.28,33.93,15.1,34.478,16.148a.146.146,0,0,0,.191.066,12.644,12.644,0,0,0,3.239-3.922,10.371,10.371,0,0,0,1.717-4.644A.225.225,0,0,0,39.517,7.488ZM110.607,19.4A13.852,13.852,0,1,1,96.755,5.549,13.851,13.851,0,0,1,110.607,19.4Zm-4.276,0a9.575,9.575,0,1,0-9.575,9.575A9.575,9.575,0,0,0,106.331,19.4ZM72.953,6.559V33.267h3.27a1.006,1.006,0,0,0,1.006-1.006V5.553h-3.27A1,1,0,0,0,72.953,6.559Zm65.624-1.006a1.006,1.006,0,0,0-1.006,1.006V26.407L120.928,5.553h0v0h-3.27a1.006,1.006,0,0,0-1.006,1.006V33.263h3.27a1.006,1.006,0,0,0,1.006-1.006V12.406l16.647,20.857v0h0l0,0,0,0h3.264a1.006,1.006,0,0,0,1.006-1.006V5.553Zm-77.655,0v.014a1.006,1.006,0,0,0-.7.295L49.457,16.578V5.549h-3.27a1.006,1.006,0,0,0-1.006,1.006V33.263h3.27a1.006,1.006,0,0,0,1.006-1.006V22.241l10.769,10.72a1.006,1.006,0,0,0,.7.295v.014h5.622l-.021-.014h.021L52.668,19.408,66.548,5.56h-.021l.021-.014H60.922Z" transform="translate(-0.002 -0.001)" fill="#3f4744"/>
</svg>
