<svg xmlns="http://www.w3.org/2000/svg" width="271" height="7.24" viewBox="0 0 271 7.24">
  <g id="Group_10" data-name="Group 10" transform="translate(-179.5 -2772.88)" opacity="0.479">
    <path id="Path_14" data-name="Path 14" d="M-3.675.12A3.622,3.622,0,0,0,.155-3.5a3.622,3.622,0,0,0-3.83-3.62A3.622,3.622,0,0,0-7.505-3.5,3.622,3.622,0,0,0-3.675.12Zm0-1.38A2.135,2.135,0,0,1-5.865-3.5a2.135,2.135,0,0,1,2.19-2.24A2.135,2.135,0,0,1-1.485-3.5,2.135,2.135,0,0,1-3.675-1.26ZM7.575,0,6-2.25a2.276,2.276,0,0,0,1.44-2.21C7.445-6.03,6.275-7,4.4-7H1.375V0h1.62V-1.95h1.49L5.835,0ZM5.8-4.46c0,.76-.5,1.22-1.49,1.22H2.995V-5.68h1.32C5.3-5.68,5.8-5.23,5.8-4.46Z" transform="translate(315 2780)" fill="#3f4744"/>
    <line id="Line_1" data-name="Line 1" x2="123" transform="translate(327.5 2776.5)" fill="none" stroke="#707070" stroke-width="1"/>
    <line id="Line_2" data-name="Line 2" x2="123" transform="translate(179.5 2776.5)" fill="none" stroke="#707070" stroke-width="1"/>
  </g>
</svg>
